<?xml version="1.0" encoding="UTF-8" standalone="no"?>
<!-- Created with Bouml (http://bouml.free.fr/) -->
<!DOCTYPE svg PUBLIC "-//W3C//DTD SVG 1.1//EN" "http://www.w3.org/Graphics/SVG/1.1/DTD/svg11.dtd">
<svg width="3294" height="2568" version="1.1" xmlns="http://www.w3.org/2000/svg">
<g>
	<rect fill="#808080" stroke="none" stroke-opacity="1" x="691" y="76" width="4" height="31" />
	<rect fill="#808080" stroke="none" stroke-opacity="1" x="569" y="103" width="126" height="4" />
	<rect fill="#ffffc0" stroke="black" stroke-width="1" stroke-opacity="1" x="564" y="71" width="127" height="32" />
	<text font-family="Helvetica" font-size="16" fill="#000000" xml:space="preserve" text-decoration="underline" text-anchor="middle" x="628" y="96">:SurfaceFlinger</text>
</g>
<g>
	<rect fill="#808080" stroke="none" stroke-opacity="1" x="2241" y="82" width="4" height="27" />
	<rect fill="#808080" stroke="none" stroke-opacity="1" x="2119" y="105" width="126" height="4" />
	<rect fill="#ffffc0" stroke="black" stroke-width="1" stroke-opacity="1" x="2114" y="77" width="127" height="28" />
	<text font-family="Helvetica" font-size="16" fill="#000000" xml:space="preserve" text-decoration="underline" text-anchor="middle" x="2178" y="100">:ANativeWindow</text>
</g>
<g>
	<rect fill="#808080" stroke="none" stroke-opacity="1" x="962" y="72" width="4" height="31" />
	<rect fill="#808080" stroke="none" stroke-opacity="1" x="855" y="99" width="111" height="4" />
	<rect fill="#ffffc0" stroke="black" stroke-width="1" stroke-opacity="1" x="850" y="67" width="112" height="32" />
	<text font-family="Helvetica" font-size="16" fill="#000000" xml:space="preserve" text-decoration="underline" text-anchor="middle" x="906" y="92">:BufferQueue</text>
</g>
<g>
	<polygon fill="#c0ffff" stroke="black" stroke-opacity="1" points="2360,575 2897,575 2897,589 2911,589 2911,759 2360,759 2360,575" />
	<line stroke="black" stroke-opacity="1" x1="2897" y1="575" x2="2911" y2="589" />
	<text font-family="Helvetica" font-size="16" fill="#000000" xml:space="preserve" x="2374" y="608">// Initialize the ANativeWindow function pointers.</text>
	<text font-family="Helvetica" font-size="16" fill="#000000" xml:space="preserve" x="2374" y="628">ANativeWindow::setSwapInterval  = hook_setSwapInterval;</text>
	<text font-family="Helvetica" font-size="16" fill="#000000" xml:space="preserve" x="2374" y="648">ANativeWindow::dequeueBuffer    = hook_dequeueBuffer;</text>
	<text font-family="Helvetica" font-size="16" fill="#000000" xml:space="preserve" x="2374" y="668">ANativeWindow::cancelBuffer     = hook_cancelBuffer;</text>
	<text font-family="Helvetica" font-size="16" fill="#000000" xml:space="preserve" x="2374" y="688">ANativeWindow::queueBuffer      = hook_queueBuffer;</text>
	<text font-family="Helvetica" font-size="16" fill="#000000" xml:space="preserve" x="2374" y="708">ANativeWindow::query            = hook_query;</text>
	<text font-family="Helvetica" font-size="16" fill="#000000" xml:space="preserve" x="2374" y="728">ANativeWindow::perform          = hook_perform;</text>
</g>
<g>
	<polygon fill="#c0ffff" stroke="black" stroke-opacity="1" points="2607,2187 2955,2187 2955,2201 2969,2201 2969,2257 2607,2257 2607,2187" />
	<line stroke="black" stroke-opacity="1" x1="2955" y1="2187" x2="2969" y2="2201" />
	<text font-family="Helvetica" font-size="16" fill="#000000" xml:space="preserve" x="2621" y="2220">mCore-&gt;mQueue.push_back(item);</text>
	<text font-family="Helvetica" font-size="16" fill="#000000" xml:space="preserve" x="2621" y="2240">listener = mCore-&gt;mConsumerListener;</text>
</g>
<g>
	<line stroke="black" stroke-dasharray="18,6"  stroke-opacity="1" x1="630" y1="128" x2="630" y2="2568" />
</g>
<g>
	<line stroke="black" stroke-dasharray="18,6"  stroke-opacity="1" x1="2180" y1="135" x2="2180" y2="2568" />
</g>
<g>
	<line stroke="black" stroke-dasharray="18,6"  stroke-opacity="1" x1="908" y1="125" x2="908" y2="2568" />
</g>
<g>
	<line stroke="black" stroke-dasharray="18,6"  stroke-opacity="1" x1="1448" y1="134" x2="1448" y2="2568" />
</g>
<g>
	<rect fill="#808080" stroke="none" stroke-opacity="1" x="1543" y="81" width="4" height="31" />
	<rect fill="#808080" stroke="none" stroke-opacity="1" x="1354" y="108" width="193" height="4" />
	<rect fill="#ffffc0" stroke="black" stroke-width="1" stroke-opacity="1" x="1349" y="76" width="194" height="32" />
	<text font-family="Helvetica" font-size="16" fill="#000000" xml:space="preserve" text-decoration="underline" text-anchor="middle" x="1446" y="101">:BufferQueueConsumer</text>
</g>
<g>
	<rect fill="#808080" stroke="none" stroke-opacity="1" x="2363" y="84" width="4" height="31" />
	<rect fill="#808080" stroke="none" stroke-opacity="1" x="2294" y="111" width="73" height="4" />
	<rect fill="#ffffc0" stroke="black" stroke-width="1" stroke-opacity="1" x="2289" y="79" width="74" height="32" />
	<text font-family="Helvetica" font-size="16" fill="#000000" xml:space="preserve" text-decoration="underline" text-anchor="middle" x="2326" y="104">:Surface</text>
</g>
<g>
	<rect fill="#808080" stroke="none" stroke-opacity="1" x="1265" y="74" width="4" height="27" />
	<rect fill="#808080" stroke="none" stroke-opacity="1" x="1108" y="97" width="161" height="4" />
	<rect fill="#ffffc0" stroke="black" stroke-width="1" stroke-opacity="1" x="1103" y="69" width="162" height="28" />
	<text font-family="Helvetica" font-size="16" fill="#000000" xml:space="preserve" text-decoration="underline" text-anchor="middle" x="1184" y="92">:FramebufferSurface</text>
</g>
<g>
	<line stroke="black" stroke-dasharray="18,6"  stroke-opacity="1" x1="2328" y1="136" x2="2328" y2="2568" />
</g>
<g>
	<line stroke="black" stroke-dasharray="18,6"  stroke-opacity="1" x1="1186" y1="127" x2="1186" y2="2568" />
</g>
<g>
	<line stroke="black" stroke-dasharray="18,6"  stroke-opacity="1" x1="780" y1="130" x2="780" y2="2568" />
</g>
<g>
	<line stroke="black" stroke-dasharray="18,6"  stroke-opacity="1" x1="1722" y1="135" x2="1722" y2="2568" />
</g>
<g>
	<line stroke="black" stroke-dasharray="18,6"  stroke-opacity="1" x1="1932" y1="135" x2="1932" y2="2568" />
</g>
<g>
	<line stroke="black" stroke-dasharray="18,6"  stroke-opacity="1" x1="2551" y1="134" x2="2551" y2="2568" />
</g>
<g>
	<line stroke="black" stroke-dasharray="18,6"  stroke-opacity="1" x1="2777" y1="138" x2="2777" y2="2568" />
</g>
<g>
	<rect fill="#808080" stroke="none" stroke-opacity="1" x="836" y="78" width="4" height="27" />
	<rect fill="#808080" stroke="none" stroke-opacity="1" x="724" y="101" width="116" height="4" />
	<rect fill="#ffffc0" stroke="black" stroke-width="1" stroke-opacity="1" x="719" y="73" width="117" height="28" />
	<text font-family="Helvetica" font-size="16" fill="#000000" xml:space="preserve" text-decoration="underline" text-anchor="middle" x="778" y="96">:DisplayDevice</text>
</g>
<g>
	<rect fill="#808080" stroke="none" stroke-opacity="1" x="1754" y="82" width="4" height="27" />
	<rect fill="#808080" stroke="none" stroke-opacity="1" x="1691" y="105" width="67" height="4" />
	<rect fill="#ffffc0" stroke="black" stroke-width="1" stroke-opacity="1" x="1686" y="77" width="68" height="28" />
	<text font-family="Helvetica" font-size="16" fill="#000000" xml:space="preserve" text-decoration="underline" text-anchor="middle" x="1720" y="100">:egl.cpp</text>
</g>
<g>
	<rect fill="#808080" stroke="none" stroke-opacity="1" x="2031" y="82" width="4" height="27" />
	<rect fill="#808080" stroke="none" stroke-opacity="1" x="1833" y="105" width="202" height="4" />
	<rect fill="#ffffc0" stroke="black" stroke-width="1" stroke-opacity="1" x="1828" y="77" width="203" height="28" />
	<text font-family="Helvetica" font-size="16" fill="#000000" xml:space="preserve" text-decoration="underline" text-anchor="middle" x="1930" y="100">:egl_window_surface_v2_t</text>
</g>
<g>
	<rect fill="#808080" stroke="none" stroke-opacity="1" x="2637" y="82" width="4" height="27" />
	<rect fill="#808080" stroke="none" stroke-opacity="1" x="2466" y="105" width="175" height="4" />
	<rect fill="#ffffc0" stroke="black" stroke-width="1" stroke-opacity="1" x="2461" y="77" width="176" height="28" />
	<text font-family="Helvetica" font-size="16" fill="#000000" xml:space="preserve" text-decoration="underline" text-anchor="middle" x="2549" y="100">:BufferQueueProducer</text>
</g>
<g>
	<rect fill="#808080" stroke="none" stroke-opacity="1" x="2851" y="85" width="4" height="27" />
	<rect fill="#808080" stroke="none" stroke-opacity="1" x="2704" y="108" width="151" height="4" />
	<rect fill="#ffffc0" stroke="black" stroke-width="1" stroke-opacity="1" x="2699" y="80" width="152" height="28" />
	<text font-family="Helvetica" font-size="16" fill="#000000" xml:space="preserve" text-decoration="underline" text-anchor="middle" x="2775" y="103">:GraphicBufferAlloc</text>
</g>
<g>
	<rect fill="none" stroke="black" stroke-width="1" stroke-opacity="1" x="623" y="229" width="14" height="895" />
</g>
<g>
	<rect fill="none" stroke="black" stroke-width="1" stroke-opacity="1" x="901" y="256" width="14" height="111" />
</g>
<g>
	<rect fill="none" stroke="black" stroke-width="1" stroke-opacity="1" x="1179" y="376" width="14" height="126" />
</g>
<g>
	<rect fill="none" stroke="black" stroke-width="1" stroke-opacity="1" x="1441" y="402" width="14" height="73" />
</g>
<g>
	<rect fill="none" stroke="black" stroke-width="1" stroke-opacity="1" x="773" y="570" width="14" height="559" />
</g>
<g>
	<rect fill="none" stroke="black" stroke-width="1" stroke-opacity="1" x="2321" y="592" width="14" height="181" />
</g>
<g>
	<rect fill="none" stroke="black" stroke-width="1" stroke-opacity="1" x="2321" y="861" width="14" height="79" />
</g>
<g>
	<rect fill="none" stroke="black" stroke-width="1" stroke-opacity="1" x="1715" y="950" width="14" height="199" />
</g>
<g>
	<rect fill="none" stroke="black" stroke-width="1" stroke-opacity="1" x="1925" y="1016" width="14" height="69" />
</g>
<g>
	<rect fill="none" stroke="black" stroke-width="1" stroke-opacity="1" x="1715" y="1298" width="14" height="408" />
</g>
<g>
	<rect fill="none" stroke="black" stroke-width="1" stroke-opacity="1" x="1925" y="1454" width="14" height="261" />
</g>
<g>
	<rect fill="none" stroke="black" stroke-width="1" stroke-opacity="1" x="2173" y="1458" width="14" height="258" />
</g>
<g>
	<rect fill="none" stroke="black" stroke-width="1" stroke-opacity="1" x="2321" y="1492" width="14" height="227" />
</g>
<g>
	<rect fill="none" stroke="black" stroke-width="1" stroke-opacity="1" x="2544" y="1587" width="14" height="136" />
</g>
<g>
	<rect fill="none" stroke="black" stroke-width="1" stroke-opacity="1" x="2770" y="1688" width="14" height="41" />
</g>
<g>
	<rect fill="none" stroke="black" stroke-width="1" stroke-opacity="1" x="773" y="1966" width="14" height="425" />
</g>
<g>
	<rect fill="none" stroke="black" stroke-width="1" stroke-opacity="1" x="1715" y="1981" width="14" height="367" />
</g>
<g>
	<rect fill="none" stroke="black" stroke-width="1" stroke-opacity="1" x="1925" y="2008" width="14" height="548" />
</g>
<g>
	<rect fill="none" stroke="black" stroke-width="1" stroke-opacity="1" x="2173" y="2038" width="14" height="317" />
</g>
<g>
	<rect fill="none" stroke="black" stroke-width="1" stroke-opacity="1" x="2321" y="2072" width="14" height="289" />
</g>
<g>
	<rect fill="none" stroke="black" stroke-width="1" stroke-opacity="1" x="2544" y="2158" width="14" height="196" />
</g>
<g>
	<rect fill="none" stroke="black" stroke-width="1" stroke-opacity="1" x="1179" y="2304" width="14" height="34" />
</g>
<g>
	<rect fill="none" stroke="black" stroke-width="1" stroke-opacity="1" x="2173" y="2499" width="14" height="34" />
</g>
<ellipse fill="black" stroke="none" cx="336.5" cy="1324.5" rx="4.5" ry="4.5" />
<ellipse fill="black" stroke="none" cx="266.5" cy="253.5" rx="4.5" ry="4.5" />
<ellipse fill="black" stroke="none" cx="214.5" cy="1979.5" rx="4.5" ry="4.5" />
<g>
	<polygon fill="#c0ffff" stroke="black" stroke-opacity="1" points="1465,420 1783,420 1783,434 1797,434 1797,469 1465,469 1465,420" />
	<line stroke="black" stroke-opacity="1" x1="1783" y1="420" x2="1797" y2="434" />
	<text font-family="Helvetica" font-size="16" fill="#000000" xml:space="preserve" x="1479" y="453">mCore-&gt;mConsumerUsageBits = usage;</text>
</g>
<g>
	<line stroke="black" stroke-opacity="1" x1="271" y1="252" x2="623" y2="252" />
	<polygon fill="#000000" stroke="none" points="623,252 619,248 619,256" />
</g>
<g>
	<line stroke="black" stroke-opacity="1" x1="638" y1="284" x2="901" y2="284" />
	<polygon fill="#000000" stroke="none" points="901,284 897,280 897,288" />
</g>
<g>
	<line stroke="black" stroke-opacity="1" x1="638" y1="591" x2="773" y2="591" />
	<polygon fill="#000000" stroke="none" points="773,591 769,587 769,595" />
</g>
<g>
	<line stroke="black" stroke-opacity="1" x1="788" y1="620" x2="2321" y2="620" />
	<polygon fill="#000000" stroke="none" points="2321,620 2317,616 2317,624" />
</g>
<g>
	<line stroke="black" stroke-opacity="1" x1="788" y1="886" x2="2321" y2="886" />
	<polygon fill="#000000" stroke="none" points="2321,886 2317,882 2317,890" />
</g>
<g>
	<line stroke="black" stroke-opacity="1" x1="788" y1="976" x2="1715" y2="976" />
	<polygon fill="#000000" stroke="none" points="1715,976 1711,972 1711,980" />
</g>
<g>
	<line stroke="black" stroke-opacity="1" x1="341" y1="1323" x2="1715" y2="1323" />
	<polygon fill="#000000" stroke="none" points="1715,1323 1711,1319 1711,1327" />
</g>
<g>
	<line stroke="black" stroke-opacity="1" x1="1730" y1="1484" x2="1925" y2="1484" />
	<polygon fill="#000000" stroke="none" points="1925,1484 1921,1480 1921,1488" />
</g>
<g>
	<line stroke="black" stroke-opacity="1" x1="1940" y1="1474" x2="2173" y2="1474" />
	<polygon fill="#000000" stroke="none" points="2173,1474 2169,1470 2169,1478" />
</g>
<g>
	<line stroke="black" stroke-opacity="1" x1="2188" y1="1505" x2="2321" y2="1505" />
	<polygon fill="#000000" stroke="none" points="2321,1505 2317,1501 2317,1509" />
</g>
<g>
	<line stroke="black" stroke-opacity="1" x1="2559" y1="1700" x2="2770" y2="1700" />
	<polygon fill="#000000" stroke="none" points="2770,1700 2766,1696 2766,1704" />
</g>
<g>
	<line stroke="black" stroke-opacity="1" x1="219" y1="1978" x2="773" y2="1978" />
	<polygon fill="#000000" stroke="none" points="773,1978 769,1974 769,1982" />
</g>
<g>
	<line stroke="black" stroke-opacity="1" x1="788" y1="1996" x2="1715" y2="1996" />
	<polygon fill="#000000" stroke="none" points="1715,1996 1711,1992 1711,2000" />
</g>
<g>
	<line stroke="black" stroke-opacity="1" x1="1730" y1="2017" x2="1925" y2="2017" />
	<polygon fill="#000000" stroke="none" points="1925,2017 1921,2013 1921,2021" />
</g>
<g>
	<line stroke="black" stroke-opacity="1" x1="2188" y1="2080" x2="2321" y2="2080" />
	<polygon fill="#000000" stroke="none" points="2321,2080 2317,2076 2317,2084" />
</g>
<g>
	<line stroke="black" stroke-opacity="1" x1="1194" y1="2313" x2="2544" y2="2313" />
	<polygon fill="#000000" stroke="none" points="1194,2313 1198,2309 1198,2317" />
</g>
<g>
	<line stroke="black" stroke-opacity="1" x1="1940" y1="2505" x2="2173" y2="2505" />
	<polygon fill="#000000" stroke="none" points="2173,2505 2169,2501 2169,2509" />
</g>
<g>
	<line stroke="black" stroke-opacity="1" x1="1194" y1="423" x2="1441" y2="423" />
	<polygon fill="#000000" stroke="none" points="1441,423 1437,419 1437,427" />
</g>
<g>
	<rect fill="none" stroke="black" stroke-width="1" stroke-opacity="1" x="781" y="1024" width="14" height="94" />
</g>
<g>
	<rect fill="none" stroke="black" stroke-width="1" stroke-opacity="1" x="1723" y="1006" width="14" height="135" />
</g>
<g>
	<rect fill="none" stroke="black" stroke-width="1" stroke-opacity="1" x="1723" y="1355" width="14" height="34" />
</g>
<g>
	<rect fill="none" stroke="black" stroke-width="1" stroke-opacity="1" x="2329" y="1527" width="14" height="182" />
</g>
<g>
	<rect fill="none" stroke="black" stroke-width="1" stroke-opacity="1" x="2552" y="1617" width="14" height="34" />
</g>
<g>
	<rect fill="none" stroke="black" stroke-width="1" stroke-opacity="1" x="2329" y="2108" width="14" height="243" />
</g>
<g>
	<rect fill="none" stroke="black" stroke-width="1" stroke-opacity="1" x="2552" y="2187" width="14" height="80" />
</g>
<g>
	<line stroke="black" stroke-opacity="1" x1="1940" y1="2048" x2="2173" y2="2048" />
	<polygon fill="#000000" stroke="none" points="2173,2048 2169,2044 2169,2052" />
</g>
<g>
	<path fill="none" stroke="black" stroke-opacity="1" d="M 797 1025 L 814 1025 L 814 1032 L 797 1032" />
	<polygon fill="#000000" stroke="none" points="797,1032 801,1036 801,1028" />
</g>
<g>
	<path fill="none" stroke="black" stroke-opacity="1" d="M 1739 1007 L 1756 1007 L 1756 1014 L 1739 1014" />
	<polygon fill="#000000" stroke="none" points="1739,1014 1743,1018 1743,1010" />
</g>
<g>
	<path fill="none" stroke="black" stroke-opacity="1" d="M 1739 1356 L 1756 1356 L 1756 1363 L 1739 1363" />
	<polygon fill="#000000" stroke="none" points="1739,1363 1743,1367 1743,1359" />
</g>
<g>
	<path fill="none" stroke="black" stroke-opacity="1" d="M 2345 1528 L 2362 1528 L 2362 1535 L 2345 1535" />
	<polygon fill="#000000" stroke="none" points="2345,1535 2349,1539 2349,1531" />
</g>
<g>
	<path fill="none" stroke="black" stroke-opacity="1" d="M 2568 1618 L 2585 1618 L 2585 1625 L 2568 1625" />
	<polygon fill="#000000" stroke="none" points="2568,1625 2572,1629 2572,1621" />
</g>
<g>
	<path fill="none" stroke="black" stroke-opacity="1" d="M 2345 2109 L 2362 2109 L 2362 2116 L 2345 2116" />
	<polygon fill="#000000" stroke="none" points="2345,2116 2349,2120 2349,2112" />
</g>
<g>
	<path fill="none" stroke="black" stroke-opacity="1" d="M 2568 2188 L 2585 2188 L 2585 2195 L 2568 2195" />
	<polygon fill="#000000" stroke="none" points="2568,2195 2572,2199 2572,2191" />
</g>
<g>
	<line stroke="black" stroke-opacity="1" x1="638" y1="417" x2="1179" y2="417" />
	<polygon fill="#000000" stroke="none" points="1179,417 1175,413 1175,421" />
</g>
<g>
	<line stroke="black" stroke-opacity="1" x1="1738" y1="1060" x2="1925" y2="1060" />
	<polygon fill="#000000" stroke="none" points="1925,1060 1921,1056 1921,1064" />
</g>
<g>
	<line stroke="black" stroke-opacity="1" x1="2344" y1="1597" x2="2544" y2="1597" />
	<polygon fill="#000000" stroke="none" points="2544,1597 2540,1593 2540,1601" />
</g>
<g>
	<line stroke="black" stroke-opacity="1" x1="2344" y1="2167" x2="2544" y2="2167" />
	<polygon fill="#000000" stroke="none" points="2544,2167 2540,2163 2540,2171" />
</g>
<g>
	<rect fill="none" stroke="black" stroke-width="1" stroke-opacity="1" x="1731" y="1099" width="14" height="34" />
</g>
<g>
	<path fill="none" stroke="black" stroke-opacity="1" d="M 1747 1100 L 1764 1100 L 1764 1107 L 1747 1107" />
	<polygon fill="#000000" stroke="none" points="1747,1107 1751,1111 1751,1103" />
</g>
<g>
	<text font-family="Helvetica" font-size="16" fill="#000000" xml:space="preserve" x="806" y="606">B1. mNativeWindow = new Surface(producer, false);</text>
</g>
<g>
	<text font-family="Helvetica" font-size="16" fill="#000000" xml:space="preserve" x="302" y="243">init()</text>
</g>
<g>
	<text font-family="Helvetica" font-size="16" fill="#000000" xml:space="preserve" x="796" y="880">B2. ANativeWindow* const window = mNativeWindow.get();</text>
</g>
<g>
	<text font-family="Helvetica" font-size="16" fill="#000000" xml:space="preserve" x="652" y="274">A1. BufferQueue::createBufferQueue(&amp;producer, &amp;consumer, new GraphicBufferAlloc())</text>
</g>
<g>
	<text font-family="Helvetica" font-size="16" fill="#000000" xml:space="preserve" x="648" y="407">A2. fbs = new FramebufferSurface(*mHwc, i, consumer);</text>
</g>
<g>
	<text font-family="Helvetica" font-size="16" fill="#000000" xml:space="preserve" x="1205" y="403">C1. mConsumer-&gt;setConsumerUsageBits(GRALLOC_USAGE_HW_FB ...)</text>
</g>
<g>
	<text font-family="Helvetica" font-size="16" fill="#000000" xml:space="preserve" x="1728" y="998">C1. createWindowSurface</text>
</g>
<g>
	<text font-family="Helvetica" font-size="16" fill="#000000" xml:space="preserve" x="656" y="571">A3. hw = new DisplayDevice(...)</text>
</g>
<g>
	<text font-family="Helvetica" font-size="16" fill="#000000" xml:space="preserve" x="791" y="964">B3. surface = eglCreateWindowSurface(display, config, window, NULL);</text>
</g>
<g>
	<text font-family="Helvetica" font-size="16" fill="#000000" xml:space="preserve" x="795" y="1026">B4. mSurface = surface;</text>
</g>
<g>
	<text font-family="Helvetica" font-size="16" fill="#000000" xml:space="preserve" x="1748" y="1048">D1. surface = new egl_window_surface_v2_t(dpy, config, depthFormat, static_cast&lt;ANativeWindow*&gt;(window));</text>
</g>
<g>
	<text font-family="Helvetica" font-size="16" fill="#000000" xml:space="preserve" x="1741" y="1096">D2. return surface;</text>
</g>
<g>
	<text font-family="Helvetica" font-size="16" fill="#000000" xml:space="preserve" x="1748" y="1474">A2. d-&gt;connect()</text>
</g>
<g>
	<text font-family="Helvetica" font-size="16" fill="#000000" xml:space="preserve" x="2357" y="1587">E1. mGraphicBufferProducer-&gt;dequeueBuffer</text>
</g>
<g>
	<text font-family="Helvetica" font-size="16" fill="#000000" xml:space="preserve" x="2568" y="1685">F2. graphicBuffer(mCore-&gt;mAllocator-&gt;createGraphicBuffer(width, height, format, usage, &amp;error))</text>
</g>
<g>
	<text font-family="Helvetica" font-size="16" fill="#000000" xml:space="preserve" x="1751" y="1342">A1. egl_surface_t* d = (egl_surface_t*)draw;</text>
</g>
<g>
	<text font-family="Helvetica" font-size="16" fill="#000000" xml:space="preserve" x="90" y="1307">eglMakeCurrent(  EGLDisplay dpy, EGLSurface draw, EGLSurface read, EGLContext ctx)</text>
</g>
<g>
	<text font-family="Helvetica" font-size="16" fill="#000000" xml:space="preserve" x="2204" y="1492">C1. hook_dequeueBuffer</text>
</g>
<g>
	<text font-family="Helvetica" font-size="16" fill="#000000" xml:space="preserve" x="2351" y="1521">D1. c-&gt;dequeueBuffer(buffer, fenceFd)</text>
</g>
<g>
	<text font-family="Helvetica" font-size="16" fill="#000000" xml:space="preserve" x="1950" y="1460">B1. nativeWindow-&gt;dequeueBuffer(nativeWindow, &amp;buffer, &amp;fenceFd)</text>
</g>
<g>
	<text font-family="Helvetica" font-size="16" fill="#000000" xml:space="preserve" x="2576" y="1612">F1. usage |= mCore-&gt;mConsumerUsageBits;</text>
</g>
<g>
	<text font-family="Helvetica" font-size="16" fill="#000000" xml:space="preserve" x="254" y="1961">swapBuffers(HWComposer&amp; hwc)</text>
</g>
<g>
	<text font-family="Helvetica" font-size="16" fill="#000000" xml:space="preserve" x="811" y="1986">A1. eglSwapBuffers(mDisplay, mSurface)</text>
</g>
<g>
	<text font-family="Helvetica" font-size="16" fill="#000000" xml:space="preserve" x="1747" y="2007">B1. d-&gt;swapBuffers();</text>
</g>
<g>
	<text font-family="Helvetica" font-size="16" fill="#000000" xml:space="preserve" x="1951" y="2035">C1. nativeWindow-&gt;queueBuffer(nativeWindow, buffer, -1);</text>
</g>
<g>
	<text font-family="Helvetica" font-size="16" fill="#000000" xml:space="preserve" x="2208" y="2069">D1. hook_queueBuffer</text>
</g>
<g>
	<text font-family="Helvetica" font-size="16" fill="#000000" xml:space="preserve" x="2345" y="2102">E1. c-&gt;queueBuffer(buffer, fenceFd);</text>
</g>
<g>
	<text font-family="Helvetica" font-size="16" fill="#000000" xml:space="preserve" x="2358" y="2160">F1. mGraphicBufferProducer-&gt;queueBuffer(i, input, &amp;output);</text>
</g>
<g>
	<text font-family="Helvetica" font-size="16" fill="#000000" xml:space="preserve" x="2580" y="2185">G1. //</text>
</g>
<g>
	<text font-family="Helvetica" font-size="16" fill="#000000" xml:space="preserve" x="2433" y="2307">G2. listener-&gt;onFrameAvailable();</text>
</g>
<g>
	<text font-family="Helvetica" font-size="16" fill="#000000" xml:space="preserve" x="1952" y="2490">C2. nativeWindow-&gt;dequeueBuffer(nativeWindow, &amp;buffer, &amp;fenceFd)</text>
</g>
</svg>
